<?xml version="1.0" standalone="no"?><!DOCTYPE svg PUBLIC "-//W3C//DTD SVG 1.1//EN" "http://www.w3.org/Graphics/SVG/1.1/DTD/svg11.dtd"><svg t="1749817582090" class="icon" viewBox="0 0 1024 1024" version="1.1" xmlns="http://www.w3.org/2000/svg" p-id="2436" xmlns:xlink="http://www.w3.org/1999/xlink" width="98" height="98"><path d="M758.3744 71.611733c-13.5168 0-24.439467 25.668267-24.439467 39.458134 0 13.789867 10.922667 39.1168 24.439467 39.1168h49.083733c62.122667 0 88.2688 49.493333 88.2688 100.215466v593.92c0 53.248-26.146133 104.0384-88.2688 104.0384H195.515733c-45.192533 0-84.3776-57.412267-84.3776-104.106666V250.402133c0-41.1648 46.967467-100.215467 84.3776-100.215466h49.152c13.448533 0 24.3712-25.326933 24.3712-39.1168 0-13.789867-10.922667-39.458133-24.3712-39.458134h-49.152C106.564267 71.611733 34.133333 151.7568 34.133333 250.4704v593.783467c0 98.577067 72.362667 178.7904 161.3824 178.7904h611.9424c89.019733 0 161.3824-80.145067 161.3824-178.7904V250.402133c0-98.577067-72.362667-178.858667-161.3824-178.858666h-49.152z" fill="#4A4C4F" p-id="2437"></path><path d="M219.818667 798.72c0 18.8416 8.328533 34.133333 18.6368 34.133333h567.842133c10.308267-0.682667 18.363733-16.520533 17.954133-35.4304-0.341333-17.8176-8.192-32.1536-17.954133-32.836266H238.455467c-10.308267 0-18.6368 15.291733-18.6368 34.133333z m68.676266-125.405867l78.165334-349.252266-53.248-17.066667-92.3648 52.087467c-15.018667 16.930133-14.336 34.4064 2.048 52.565333 5.12 5.666133 12.6976 7.509333 24.849066 6.690133l37.137067-16.861866-66.901333 271.906133h70.314666zM581.973333 501.76c3.413333-20.48 5.188267-41.3696 5.188267-62.327467-2.389333-77.277867-28.672-119.466667-79.189333-125.405866-67.857067 2.8672-109.3632 64.989867-123.153067 184.593066-2.048 16.384-3.208533 32.904533-3.413333 49.493334 0 80.349867 25.8048 123.2896 77.4144 127.726933 64.512-1.365333 105.8816-59.938133 123.153066-174.08z m-141.038933 49.015467c0-12.765867 0.8192-25.531733 2.4576-38.0928 10.171733-84.445867 29.149867-128.8192 55.842133-131.822934 6.5536 0.341333 26.624 1.365333 26.624 63.761067-0.2048 15.633067-1.4336 31.1296-3.6864 46.421333v0.2048c-9.352533 78.711467-27.4432 119.6032-53.179733 121.719467-6.690133-0.8192-26.965333-2.935467-27.989333-62.190933z m288.494933-236.7488c-67.925333 2.8672-109.431467 64.989867-123.153066 184.593066-2.116267 16.384-3.2768 32.904533-3.413334 49.493334 0 80.349867 25.8048 123.2896 77.346134 127.726933 64.580267-1.365333 106.018133-59.938133 123.221333-174.216533 3.413333-20.48 5.188267-41.3696 5.256533-62.2592-2.4576-77.2096-28.740267-119.466667-79.2576-125.3376z m14.336 177.083733v0.2048c-9.4208 78.6432-27.511467 119.534933-53.248 121.6512-6.690133-0.682667-26.897067-2.8672-27.989333-62.190933 0-12.765867 0.750933-25.531733 2.389333-38.0928 10.171733-84.445867 29.218133-128.8192 55.842134-131.822934 6.621867 0.341333 26.624 1.365333 26.624 63.761067a349.525333 349.525333 0 0 1-3.6864 46.421333z m-364.9536-324.949333h244.599467A81.237333 81.237333 0 0 0 703.488 83.968v-2.048C703.488 36.727467 667.648 0.068267 623.342933 0H378.811733C334.506667 0 298.666667 36.727467 298.5984 81.988267v2.048c0 45.2608 35.908267 81.92 80.213333 82.056533z m-13.9264-83.968c0-15.701333 12.424533-28.398933 27.784534-28.398934h216.8832c15.36 0 27.784533 12.6976 27.784533 28.398934v1.8432c0 15.701333-12.424533 28.398933-27.784533 28.398933H392.669867a28.125867 28.125867 0 0 1-27.784534-28.398933v-1.8432z" fill="#4A4C4F" p-id="2438"></path></svg>